@startuml classes
set namespaceSeparator none
class "ChatBot" as chatterbot.chatterbot.ChatBot {
  logger
  logic_adapters : list
  name
  preprocessors : list
  read_only
  search_algorithms : dict
  storage
  generate_response(input_statement, additional_response_selection_parameters)
  get_latest_response(conversation)
  get_response(statement)
  learn_response(statement, previous_statement)
}
class "<color:red>ChatBotException</color>" as chatterbot.chatterbot.ChatBot.ChatBotException {
}
class "ChatterBotCorpusTrainer" as chatterbot.trainers.ChatterBotCorpusTrainer {
  train()
}
class "ListTrainer" as chatterbot.trainers.ListTrainer {
  train(conversation)
}
class "ResultOption" as chatterbot.chatterbot.ChatBot.generate_response.ResultOption {
  count : int
  statement
}
class "Statement" as chatterbot.conversation.Statement {
  confidence : int
  conversation
  created_at : datetime
  id
  in_response_to : NoneType
  persona
  search_in_response_to : str
  search_text : str
  storage : NoneType
  tags
  text : str
  save()
}
class "StatementMixin" as chatterbot.conversation.StatementMixin {
  extra_statement_field_names : list
  statement_field_names : list
  add_tags()
  get_statement_field_names()
  get_tags()
  serialize()
}
class "Trainer" as chatterbot.trainers.Trainer {
  chatbot
  show_training_progress
  export_for_training(file_path)
  get_preprocessed_statement(input_statement)
  train()
}
class "<color:red>TrainerInitializationException</color>" as chatterbot.trainers.Trainer.TrainerInitializationException {
}
class "UbuntuCorpusTrainer" as chatterbot.trainers.UbuntuCorpusTrainer {
  data_directory
  data_download_url
  extracted_data_directory
  download(url, show_status)
  extract(file_path)
  is_downloaded(file_path)
  is_extracted(file_path)
  train()
}
chatterbot.conversation.Statement --|> chatterbot.conversation.StatementMixin
chatterbot.trainers.ChatterBotCorpusTrainer --|> chatterbot.trainers.Trainer
chatterbot.trainers.ListTrainer --|> chatterbot.trainers.Trainer
chatterbot.trainers.UbuntuCorpusTrainer --|> chatterbot.trainers.Trainer
@enduml
